<?xml version="1.0" encoding="UTF-8"?>
<svg id="Layer_2" data-name="Layer 2" xmlns="http://www.w3.org/2000/svg" viewBox="0 0 678.57 221.61">
  <g id="Layer_1-2" data-name="Layer 1">
    <path d="M87.82,176.8v43.91h-30.31v-87.43l30.18-32.47L29.53,44.69v176.06H0V0h29.92l80.05,79.15L190.79,0h29.14v220.75h-30.31l.77-176.05-58.15,56.12,30.18,32.47v87.47h-29.53v-44.33M87.84,146.1h44.98s-22.85-22.42-22.85-22.42"/>
    <g>
      <path d="M286.17,220.45c.19-5.14.34-10.13.38-16.08,0-2.45.19-5.09.34-7.63l-.34-.1c-1.2,2.4-2.54,4.9-4.18,7.01l-12.67,16.8h-6.58l-14.21-18.91c-1.58-2.11-2.98-4.61-4.18-6.91l-.34.1c.14,2.5.34,4.99.38,7.73.05,6.72.19,12.34.48,18h-12.86c.29-5.18.38-10.42.38-18.05s-.1-13.25-.24-17.95h19.3c2.64,3.89,6.58,9.74,11.52,16.9,1.3,1.82,2.69,3.89,4.03,6h.29c1.3-2.16,2.54-4.22,3.74-6,4.61-6.86,8.93-13.11,11.52-16.9h17.04c-.14,4.7-.29,10.08-.29,17.95s.05,12.87.38,18.05h-13.92Z"/>
      <path d="M355.53,220.45c-.43-1.06-1.58-3.41-3.17-6.34-4.99-.05-10.03-.05-13.87-.05-3.5,0-8.64,0-13.49.05-1.63,2.74-2.93,5.04-3.55,6.34h-15.79c6.86-9.5,20.16-29.67,23.28-36h19.97c3.26,6.34,16.56,26.26,23.71,36h-17.09ZM335.51,196.89c-1.63,2.59-3.5,5.62-5.33,8.64,3.02.05,6.05.05,8.35.05,2.5,0,5.76,0,9.02-.05-1.78-3.07-3.65-6.14-5.33-8.74-1.49-2.26-2.54-4.13-3.36-5.62l-3.36,5.71Z"/>
      <path d="M387.88,208.69c0,2.45,3.12,3.41,14.55,3.41,12.58,0,14.16-.82,14.16-2.35,0-1.63-.86-2.45-15.99-2.93-20.4-.67-25.83-4.03-25.83-11.47,0-7.92,7.2-12.05,26.69-12.05,20.74,0,27.27,2.59,27.27,10.94,0,.72,0,1.44-.05,2.26-1.44-.1-3.98-.14-6.43-.14s-5.09.05-6.53.14v-.91c0-2.45-1.73-3.26-14.45-3.26-11.71,0-13.44.72-13.44,2.16s.91,2.06,16.99,2.88c19.06.96,24.91,3.74,24.91,11.81s-6.67,12.43-27.17,12.43-28.08-3.5-28.08-10.8c0-.86.05-1.78.19-2.74,1.68.19,4.22.34,6.62.34s4.75-.05,6.58-.14v.43Z"/>
      <path d="M484.89,184.45c-.1,1.39-.1,3.5-.1,5.38s0,4.08.1,5.62c-6.67-.19-13.3-.19-19.06-.19,0,12.05.05,22.47.19,25.25-1.78-.14-4.75-.14-6.77-.14s-4.85,0-6.77.14c.14-2.78.24-13.15.24-25.25-5.76,0-12.38,0-19.06.19.05-1.54.05-3.74.05-5.62s0-3.94-.05-5.38h51.22Z"/>
      <path d="M541.86,184.45c-.05,1.06-.1,2.74-.1,4.22s0,3.26.1,4.27c-9.98-.05-28.03-.1-37.01-.1v5.52c10.37,0,28.47,0,36.48-.14-.05,1.87-.1,5.71-.05,7.73-7.87-.1-26.16-.19-36.44-.19v5.62c8.98,0,27.65-.05,37.01-.1-.1,1.15-.1,2.98-.1,4.66,0,1.54,0,3.31.1,4.51h-50.74c.19-4.9.19-10.32.19-18s0-13.15-.19-18h50.74Z"/>
      <path d="M594.28,205.72c8.4.82,12.24,2.16,13.78,7.63.86,3.12,1.63,5.71,2.26,7.1h-11.95c-2.16,0-2.54-.48-3.74-5.18-1.06-4.22-2.64-4.99-11.38-4.99h-17.19c.1,4.08.29,7.58.58,10.18h-13.73c.1-5.23.19-10.27.19-18s-.05-12.82-.19-18h35.71c13.01,0,19.11,3.41,19.11,10.7,0,6.19-4.03,9.36-13.44,10.37v.19ZM584.44,201.3c7.73,0,10.51-1.3,10.51-3.94s-2.74-3.65-10.37-3.65c-3.65,0-13.87.05-18.72.19,0,2.45,0,4.9.05,7.25,3.46.14,10.8.14,18.53.14Z"/>
      <path d="M661.48,220.45c-.43-1.06-1.58-3.41-3.17-6.34-4.99-.05-10.03-.05-13.87-.05-3.5,0-8.64,0-13.49.05-1.63,2.74-2.93,5.04-3.55,6.34h-15.79c6.86-9.5,20.16-29.67,23.28-36h19.97c3.26,6.34,16.56,26.26,23.71,36h-17.09ZM641.46,196.89c-1.63,2.59-3.5,5.62-5.33,8.64,3.02.05,6.05.05,8.35.05,2.5,0,5.76,0,9.02-.05-1.78-3.07-3.65-6.14-5.33-8.74-1.49-2.26-2.54-4.13-3.36-5.62l-3.36,5.71Z"/>
    </g>
  </g>
</svg>