<?xml version="1.0" encoding="UTF-8"?>
<svg id="Layer_2" data-name="Layer 2" xmlns="http://www.w3.org/2000/svg" viewBox="0 0 337.07 261.92">
  <g id="Layer_1-2" data-name="Layer 1">
    <g>
      <path d="M40.62,261.04c.14-3.88.25-7.65.29-12.15,0-1.85.14-3.84.25-5.77l-.25-.07c-.91,1.81-1.92,3.7-3.16,5.3l-9.57,12.69h-4.97l-10.74-14.29c-1.2-1.6-2.25-3.48-3.16-5.22l-.25.07c.11,1.89.25,3.77.29,5.84.04,5.08.14,9.32.36,13.6H0c.22-3.92.29-7.87.29-13.64s-.07-10.01-.18-13.56h14.58c1.99,2.94,4.97,7.36,8.7,12.77.98,1.38,2.03,2.94,3.05,4.53h.22c.98-1.63,1.92-3.19,2.83-4.53,3.48-5.19,6.75-9.9,8.7-12.77h12.87c-.11,3.55-.22,7.62-.22,13.56s.04,9.72.29,13.64h-10.52Z"/>
      <path d="M93.02,261.04c-.33-.8-1.2-2.57-2.39-4.79-3.77-.04-7.58-.04-10.48-.04-2.65,0-6.53,0-10.19.04-1.23,2.07-2.21,3.81-2.68,4.79h-11.93c5.19-7.18,15.23-22.41,17.59-27.2h15.09c2.47,4.79,12.51,19.84,17.92,27.2h-12.91ZM77.9,243.24c-1.23,1.96-2.65,4.24-4.03,6.53,2.28.04,4.57.04,6.31.04,1.89,0,4.35,0,6.82-.04-1.34-2.32-2.76-4.64-4.03-6.6-1.12-1.7-1.92-3.12-2.54-4.24l-2.54,4.32Z"/>
      <path d="M117.46,252.16c0,1.85,2.36,2.58,10.99,2.58,9.5,0,10.7-.62,10.7-1.78,0-1.23-.65-1.85-12.08-2.21-15.41-.51-19.51-3.05-19.51-8.67,0-5.98,5.44-9.1,20.16-9.1,15.67,0,20.6,1.96,20.6,8.27,0,.54,0,1.09-.04,1.7-1.09-.07-3.01-.11-4.86-.11s-3.84.04-4.93.11v-.69c0-1.85-1.31-2.47-10.92-2.47-8.85,0-10.15.54-10.15,1.63s.69,1.56,12.84,2.18c14.4.73,18.82,2.83,18.82,8.92s-5.04,9.39-20.53,9.39-21.22-2.65-21.22-8.16c0-.65.04-1.34.14-2.07,1.27.15,3.19.25,5,.25s3.59-.04,4.97-.11v.33Z"/>
      <path d="M190.75,233.84c-.07,1.05-.07,2.65-.07,4.06s0,3.08.07,4.24c-5.04-.14-10.05-.14-14.4-.14,0,9.1.04,16.97.15,19.08-1.34-.11-3.59-.11-5.11-.11s-3.66,0-5.11.11c.11-2.1.18-9.94.18-19.08-4.35,0-9.36,0-14.4.14.04-1.16.04-2.83.04-4.24s0-2.97-.04-4.06h38.7Z"/>
      <path d="M233.79,233.84c-.04.8-.07,2.07-.07,3.19s0,2.47.07,3.23c-7.54-.04-21.18-.07-27.96-.07v4.17c7.83,0,21.51,0,27.56-.11-.04,1.41-.07,4.32-.04,5.84-5.95-.07-19.77-.15-27.53-.15v4.24c6.78,0,20.89-.04,27.96-.07-.07.87-.07,2.25-.07,3.52,0,1.16,0,2.5.07,3.41h-38.33c.14-3.7.14-7.8.14-13.6s0-9.94-.14-13.6h38.33Z"/>
      <path d="M273.39,249.91c6.35.62,9.25,1.63,10.41,5.77.65,2.36,1.23,4.32,1.7,5.37h-9.03c-1.63,0-1.92-.36-2.83-3.92-.8-3.19-1.99-3.77-8.6-3.77h-12.98c.07,3.08.22,5.73.44,7.69h-10.37c.07-3.95.14-7.76.14-13.6s-.04-9.68-.14-13.6h26.98c9.83,0,14.43,2.57,14.43,8.09,0,4.68-3.05,7.07-10.15,7.83v.14ZM265.96,246.57c5.84,0,7.94-.98,7.94-2.97s-2.07-2.76-7.83-2.76c-2.76,0-10.48.04-14.14.14,0,1.85,0,3.7.04,5.48,2.61.11,8.16.11,14,.11Z"/>
      <path d="M324.16,261.04c-.33-.8-1.2-2.57-2.39-4.79-3.77-.04-7.58-.04-10.48-.04-2.65,0-6.53,0-10.19.04-1.23,2.07-2.21,3.81-2.68,4.79h-11.93c5.19-7.18,15.23-22.41,17.59-27.2h15.09c2.47,4.79,12.51,19.84,17.92,27.2h-12.91ZM309.04,243.24c-1.23,1.96-2.65,4.24-4.03,6.53,2.28.04,4.57.04,6.31.04,1.89,0,4.35,0,6.82-.04-1.34-2.32-2.76-4.64-4.03-6.6-1.12-1.7-1.92-3.12-2.54-4.24l-2.54,4.32Z"/>
    </g>
    <path d="M146.44,176.8v43.91h-30.31v-87.43l30.18-32.47-58.16-56.13v176.06h-29.53V0h29.92l80.05,79.15L249.41,0h29.14v220.75h-30.31l.77-176.05-58.15,56.12,30.18,32.47v87.47h-29.53v-44.33M146.46,146.1h44.98s-22.85-22.42-22.85-22.42"/>
  </g>
</svg>